<mxfile host="app.diagrams.net" modified="2022-05-14T07:41:19.692Z" agent="5.0 (Macintosh; Intel Mac OS X 10_15_7) AppleWebKit/537.36 (KHTML, like Gecko) Chrome/101.0.4951.64 Safari/537.36" etag="QGO0GqEfADGpr4_hIhvc" version="17.4.6" type="github">
  <diagram id="EQL63MbEGVqLQ0URvl4L" name="Page-1">
    <mxGraphModel dx="987" dy="777" grid="1" gridSize="10" guides="1" tooltips="1" connect="1" arrows="1" fold="1" page="1" pageScale="1" pageWidth="827" pageHeight="1169" math="0" shadow="0">
      <root>
        <mxCell id="0" />
        <mxCell id="1" parent="0" />
        <mxCell id="UR2uAoCC6cPY2UqU76eo-10" value="执行 root reducer" style="edgeStyle=orthogonalEdgeStyle;rounded=0;orthogonalLoop=1;jettySize=auto;html=1;exitX=1;exitY=0.25;exitDx=0;exitDy=0;entryX=0;entryY=0.25;entryDx=0;entryDy=0;" parent="1" source="UR2uAoCC6cPY2UqU76eo-1" target="UR2uAoCC6cPY2UqU76eo-2" edge="1">
          <mxGeometry relative="1" as="geometry" />
        </mxCell>
        <mxCell id="UR2uAoCC6cPY2UqU76eo-12" style="edgeStyle=orthogonalEdgeStyle;rounded=0;orthogonalLoop=1;jettySize=auto;html=1;exitX=0.5;exitY=1;exitDx=0;exitDy=0;" parent="1" edge="1">
          <mxGeometry relative="1" as="geometry">
            <mxPoint x="430" y="440" as="sourcePoint" />
            <mxPoint x="440" y="610" as="targetPoint" />
            <Array as="points">
              <mxPoint x="440" y="440" />
            </Array>
          </mxGeometry>
        </mxCell>
        <mxCell id="UR2uAoCC6cPY2UqU76eo-13" value="state" style="edgeLabel;html=1;align=center;verticalAlign=middle;resizable=0;points=[];" parent="UR2uAoCC6cPY2UqU76eo-12" vertex="1" connectable="0">
          <mxGeometry x="-0.1026" y="-1" relative="1" as="geometry">
            <mxPoint as="offset" />
          </mxGeometry>
        </mxCell>
        <mxCell id="UR2uAoCC6cPY2UqU76eo-1" value="Store" style="rounded=1;whiteSpace=wrap;html=1;" parent="1" vertex="1">
          <mxGeometry x="380" y="380" width="120" height="60" as="geometry" />
        </mxCell>
        <mxCell id="UR2uAoCC6cPY2UqU76eo-11" value="得到 state" style="edgeStyle=orthogonalEdgeStyle;rounded=0;orthogonalLoop=1;jettySize=auto;html=1;exitX=0;exitY=0.75;exitDx=0;exitDy=0;entryX=1;entryY=0.75;entryDx=0;entryDy=0;" parent="1" source="UR2uAoCC6cPY2UqU76eo-2" target="UR2uAoCC6cPY2UqU76eo-1" edge="1">
          <mxGeometry relative="1" as="geometry" />
        </mxCell>
        <mxCell id="UR2uAoCC6cPY2UqU76eo-2" value="reducer" style="rounded=1;whiteSpace=wrap;html=1;" parent="1" vertex="1">
          <mxGeometry x="650" y="380" width="120" height="60" as="geometry" />
        </mxCell>
        <mxCell id="UR2uAoCC6cPY2UqU76eo-5" style="edgeStyle=orthogonalEdgeStyle;rounded=0;orthogonalLoop=1;jettySize=auto;html=1;exitX=0;exitY=0.25;exitDx=0;exitDy=0;entryX=0.5;entryY=1;entryDx=0;entryDy=0;" parent="1" source="UR2uAoCC6cPY2UqU76eo-3" target="UR2uAoCC6cPY2UqU76eo-4" edge="1">
          <mxGeometry relative="1" as="geometry">
            <Array as="points">
              <mxPoint x="380" y="635" />
              <mxPoint x="70" y="635" />
            </Array>
          </mxGeometry>
        </mxCell>
        <mxCell id="UR2uAoCC6cPY2UqU76eo-7" value="createAction" style="edgeLabel;html=1;align=center;verticalAlign=middle;resizable=0;points=[];" parent="UR2uAoCC6cPY2UqU76eo-5" vertex="1" connectable="0">
          <mxGeometry x="0.1881" y="-2" relative="1" as="geometry">
            <mxPoint x="88" y="13" as="offset" />
          </mxGeometry>
        </mxCell>
        <mxCell id="UR2uAoCC6cPY2UqU76eo-3" value="View" style="rounded=1;whiteSpace=wrap;html=1;" parent="1" vertex="1">
          <mxGeometry x="380" y="610" width="120" height="60" as="geometry" />
        </mxCell>
        <mxCell id="UR2uAoCC6cPY2UqU76eo-9" value="middleware" style="edgeStyle=orthogonalEdgeStyle;rounded=0;orthogonalLoop=1;jettySize=auto;html=1;exitX=1;exitY=0.5;exitDx=0;exitDy=0;entryX=0;entryY=0.5;entryDx=0;entryDy=0;" parent="1" source="UR2uAoCC6cPY2UqU76eo-4" target="UR2uAoCC6cPY2UqU76eo-1" edge="1">
          <mxGeometry relative="1" as="geometry" />
        </mxCell>
        <mxCell id="RLEvqkswEOz-cYoTLEWO-1" value="dipsatch" style="edgeLabel;html=1;align=center;verticalAlign=middle;resizable=0;points=[];" vertex="1" connectable="0" parent="UR2uAoCC6cPY2UqU76eo-9">
          <mxGeometry x="-0.7055" y="-1" relative="1" as="geometry">
            <mxPoint y="-1" as="offset" />
          </mxGeometry>
        </mxCell>
        <mxCell id="RLEvqkswEOz-cYoTLEWO-2" value="dispatch" style="edgeLabel;html=1;align=center;verticalAlign=middle;resizable=0;points=[];" vertex="1" connectable="0" parent="UR2uAoCC6cPY2UqU76eo-9">
          <mxGeometry x="0.5825" y="-3" relative="1" as="geometry">
            <mxPoint y="-3" as="offset" />
          </mxGeometry>
        </mxCell>
        <mxCell id="UR2uAoCC6cPY2UqU76eo-4" value="Action" style="rounded=1;whiteSpace=wrap;html=1;" parent="1" vertex="1">
          <mxGeometry x="10" y="380" width="120" height="60" as="geometry" />
        </mxCell>
      </root>
    </mxGraphModel>
  </diagram>
</mxfile>
